<?xml version="1.0" standalone="no"?>
<!DOCTYPE svg PUBLIC "-//W3C//DTD SVG 20010904//EN"
 "http://www.w3.org/TR/2001/REC-SVG-20010904/DTD/svg10.dtd">
<svg version="1.0" xmlns="http://www.w3.org/2000/svg"
 width="500.000000pt" height="500.000000pt" viewBox="0 0 500.000000 500.000000"
 preserveAspectRatio="xMidYMid meet">

<g transform="translate(0.000000,500.000000) scale(0.100000,-0.100000)"
fill="#000000" stroke="none">
<path d="M1164 4485 l-24 -24 2 -486 3 -485 -423 0 -423 0 -24 -25 -25 -24 0
-561 c0 -547 0 -560 20 -580 19 -19 33 -20 210 -20 l190 0 0 -508 c0 -382 3
-511 12 -520 9 -9 106 -12 375 -12 l363 0 0 -359 0 -360 22 -15 c20 -14 139
-16 1084 -16 1015 0 1062 1 1077 18 15 17 17 57 17 375 l0 357 363 0 c269 0
366 3 375 12 9 9 12 138 12 520 l0 508 170 0 c157 0 172 2 190 20 20 20 20 33
20 583 0 470 -2 566 -14 583 -14 18 -32 19 -428 22 l-413 3 3 485 2 485 -24
24 -25 25 -1331 0 -1331 0 -25 -25z m1286 -1985 l0 -1900 -465 0 -465 0 0 354
c0 283 -3 356 -13 365 -9 7 -129 12 -378 13 l-364 3 -2 514 c-2 350 -6 518
-13 525 -7 7 -83 12 -200 14 l-190 3 0 495 0 494 425 0 c412 0 426 1 445 20
19 19 20 33 20 510 l0 490 600 0 600 0 0 -1900z m1342 1412 c-2 -411 0 -491
12 -507 14 -19 31 -20 428 -25 l413 -5 0 -493 0 -492 -161 0 c-139 0 -165 -2
-183 -17 -22 -18 -22 -20 -24 -528 l-2 -510 -364 -3 c-249 -1 -369 -6 -378
-13 -10 -9 -13 -82 -13 -365 l0 -354 -485 0 -485 0 0 1900 0 1900 623 0 622 0
-3 -488z"/>
<path d="M1884 4010 c-32 -13 -64 -59 -64 -92 0 -32 23 -84 40 -90 7 -2 10
-163 10 -493 l0 -490 -442 -3 -442 -2 -26 25 c-53 51 -132 38 -166 -26 -51
-99 78 -196 164 -124 l30 25 331 0 331 0 0 -365 0 -365 -152 0 c-149 0 -152 0
-178 25 -71 68 -180 18 -180 -82 0 -15 13 -38 34 -59 44 -44 103 -48 142 -9
l25 25 309 0 310 0 0 -361 0 -361 -25 -30 c-33 -39 -40 -71 -24 -109 14 -35
62 -69 97 -69 87 0 136 110 77 174 l-25 27 0 398 c0 302 -3 401 -12 414 -11
14 -36 17 -153 19 l-140 3 -3 363 -2 362 91 0 c144 0 129 -64 129 549 l0 528
25 23 c50 47 41 124 -17 160 -35 21 -60 24 -94 10z"/>
<path d="M3022 4000 c-59 -36 -68 -101 -22 -153 l30 -35 0 -520 c0 -460 2
-522 16 -536 12 -12 37 -16 110 -16 l94 0 0 -365 0 -365 -139 0 c-114 0 -143
-3 -155 -16 -14 -13 -16 -65 -16 -414 l0 -399 -25 -27 c-59 -63 -9 -174 78
-174 34 0 82 34 96 69 16 38 9 70 -24 109 l-25 30 0 361 0 361 309 0 310 0 27
-25 c41 -38 96 -35 140 9 25 25 34 43 34 68 0 93 -117 140 -180 73 -23 -25
-26 -25 -177 -25 l-153 0 0 365 0 365 335 0 334 0 25 -25 c39 -39 98 -35 142
9 38 38 43 70 19 116 -33 63 -117 76 -165 25 l-23 -25 -444 0 -443 0 0 495 c0
315 4 495 10 495 14 0 40 55 40 84 0 41 -20 74 -55 91 -43 20 -63 19 -103 -5z"/>
</g>
</svg>
