<?xml version="1.0" standalone="no"?>
<!DOCTYPE svg PUBLIC "-//W3C//DTD SVG 20010904//EN"
 "http://www.w3.org/TR/2001/REC-SVG-20010904/DTD/svg10.dtd">
<svg version="1.0" xmlns="http://www.w3.org/2000/svg"
 width="500.000000pt" height="500.000000pt" viewBox="0 0 500.000000 500.000000"
 preserveAspectRatio="xMidYMid meet">

<g transform="translate(0.000000,500.000000) scale(0.100000,-0.100000)"
fill="#000000" stroke="none">
<path d="M1868 4500 c-152 -26 -301 -167 -324 -307 -10 -62 -12 -63 -84 -46
-124 29 -267 -15 -358 -108 -81 -82 -130 -209 -119 -305 l4 -43 -53 -11 c-63
-13 -158 -72 -202 -126 -18 -21 -45 -64 -60 -94 -25 -50 -27 -65 -27 -173 0
-64 -3 -117 -7 -117 -15 0 -119 -140 -143 -193 -94 -205 -55 -443 100 -611 36
-38 36 -38 15 -53 -30 -21 -98 -117 -126 -178 -14 -29 -32 -86 -40 -127 -45
-209 57 -447 242 -565 l41 -26 -15 -41 c-24 -64 -20 -207 7 -285 27 -78 86
-166 143 -216 98 -84 259 -133 378 -115 52 8 56 7 75 -18 48 -65 147 -152 205
-182 72 -36 195 -70 254 -70 66 0 169 26 238 59 163 79 282 236 308 408 7 46
10 585 8 1653 l-3 1585 -23 58 c-49 122 -175 221 -312 247 -58 11 -55 11 -122
0z m165 -116 c64 -22 139 -91 168 -156 l24 -53 3 -1584 c2 -1716 5 -1637 -50
-1749 -36 -75 -121 -158 -205 -199 -67 -33 -86 -38 -168 -41 -184 -8 -318 61
-415 215 -40 62 -43 65 -73 59 -200 -40 -346 5 -443 136 -60 82 -77 139 -72
251 2 77 8 102 32 152 59 120 174 199 313 215 55 6 81 13 90 26 49 68 -60 97
-199 54 -102 -31 -216 -114 -256 -186 -9 -16 -12 -16 -44 4 -19 12 -56 44 -81
71 -94 100 -138 239 -117 371 16 99 50 169 119 242 l56 60 35 -20 c38 -22 127
-47 205 -57 65 -8 199 16 267 48 117 53 222 159 275 275 47 100 64 279 31 320
-14 16 -53 15 -67 -2 -7 -8 -14 -52 -16 -98 -15 -398 -474 -588 -761 -316
-201 190 -182 514 41 684 34 25 36 31 30 63 -3 20 -8 71 -11 113 -5 67 -3 83
18 130 35 76 70 112 140 147 44 23 75 31 113 31 28 0 60 6 70 14 18 13 18 19
8 87 -25 158 38 280 176 342 112 51 267 10 342 -90 53 -73 62 -99 63 -196 2
-93 8 -107 52 -107 39 0 49 26 48 124 -1 108 -22 163 -98 260 -51 66 -50 64
-35 138 21 101 95 191 183 222 55 19 152 20 209 0z"/>
<path d="M3008 4500 c-161 -28 -299 -162 -328 -323 -7 -35 -10 -615 -8 -1648
l3 -1594 21 -55 c40 -103 66 -145 143 -221 108 -107 248 -168 387 -169 59 0
182 34 254 70 59 30 161 120 206 181 18 26 22 27 74 19 139 -20 299 36 403
143 74 75 114 152 135 260 15 77 11 143 -14 233 -5 18 3 28 38 52 286 199 329
578 94 838 -41 46 -43 51 -26 61 31 20 117 159 141 230 31 89 33 240 5 323
-30 89 -76 169 -133 228 l-53 56 9 56 c17 106 -20 235 -90 315 -48 55 -141
112 -203 125 l-53 11 4 43 c11 97 -37 223 -116 303 -90 91 -222 135 -342 113
-33 -6 -66 -13 -74 -16 -9 -4 -16 10 -24 45 -35 163 -166 290 -331 321 -58 11
-55 11 -122 0z m165 -116 c97 -33 179 -139 193 -250 6 -50 5 -53 -41 -110 -56
-69 -81 -121 -96 -200 -24 -130 26 -228 86 -168 13 13 15 28 10 69 -13 103 42
222 130 280 94 61 193 68 292 20 128 -63 186 -183 161 -333 -11 -69 -11 -75 7
-88 10 -8 42 -14 71 -14 109 0 234 -97 264 -206 12 -41 9 -139 -6 -211 -5 -29
-2 -36 27 -60 104 -89 163 -184 180 -297 27 -173 -48 -345 -194 -445 -148
-100 -355 -101 -502 -1 -57 39 -119 110 -150 170 -32 64 -59 182 -51 231 4 23
0 43 -10 57 -17 24 -56 29 -71 10 -29 -37 -19 -196 18 -290 97 -246 348 -389
605 -344 47 8 110 26 138 40 l51 25 52 -51 c132 -130 167 -338 85 -506 -30
-61 -113 -157 -160 -184 l-29 -18 -43 52 c-54 64 -144 122 -228 148 -137 43
-248 13 -199 -54 9 -13 35 -20 89 -26 274 -31 430 -304 315 -549 -37 -80 -104
-148 -182 -187 -54 -26 -70 -29 -155 -29 -52 0 -114 4 -137 9 l-42 8 -28 -48
c-37 -64 -129 -156 -184 -185 -130 -66 -297 -66 -426 -1 -94 48 -183 154 -219
262 -18 53 -19 120 -19 1660 l0 1605 24 53 c28 63 103 134 164 155 56 20 153
21 210 1z"/>
</g>
</svg>
