<svg width="43" height="41" viewBox="0 0 43 41" fill="none" xmlns="http://www.w3.org/2000/svg">
<path d="M21.5999 0.0446777C18.8641 0.0446777 16.155 0.583548 13.6274 1.63052C11.0997 2.67749 8.8031 4.21207 6.86854 6.14662C2.96154 10.0536 0.766602 15.3527 0.766602 20.878C0.766602 30.0863 6.74577 37.8988 15.0166 40.6697C16.0583 40.8363 16.3916 40.1905 16.3916 39.628C16.3916 39.1488 16.3916 37.8363 16.3916 36.1072C10.6208 37.3572 9.3916 33.3155 9.3916 33.3155C8.43327 30.8988 7.0791 30.253 7.0791 30.253C5.18327 28.9613 7.22494 29.003 7.22494 29.003C9.30827 29.1488 10.4124 31.1488 10.4124 31.1488C12.2249 34.3155 15.2874 33.378 16.4749 32.878C16.6624 31.5238 17.2041 30.6072 17.7874 30.0863C13.1624 29.5655 8.30827 27.7738 8.30827 19.8363C8.30827 17.5238 9.09994 15.6697 10.4541 14.1905C10.2458 13.6697 9.5166 11.503 10.6624 8.69051C10.6624 8.69051 12.4124 8.12801 16.3916 10.8155C18.0374 10.3572 19.8291 10.128 21.5999 10.128C23.3708 10.128 25.1624 10.3572 26.8083 10.8155C30.7874 8.12801 32.5374 8.69051 32.5374 8.69051C33.6833 11.503 32.9541 13.6697 32.7458 14.1905C34.0999 15.6697 34.8916 17.5238 34.8916 19.8363C34.8916 27.7947 30.0166 29.5447 25.3708 30.0655C26.1208 30.7113 26.8083 31.9822 26.8083 33.9197C26.8083 36.7113 26.8083 38.9613 26.8083 39.628C26.8083 40.1905 27.1416 40.8572 28.2041 40.6697C36.4749 37.878 42.4333 30.0863 42.4333 20.878C42.4333 18.1421 41.8944 15.4331 40.8474 12.9054C39.8005 10.3778 38.2659 8.08117 36.3313 6.14662C34.3968 4.21207 32.1001 2.67749 29.5725 1.63052C27.0449 0.583548 24.3358 0.0446777 21.5999 0.0446777Z" fill="#AB0232"/>
</svg>
