<svg width="37" height="43" viewBox="0 0 37 43" fill="none" xmlns="http://www.w3.org/2000/svg">
<path d="M26.2416 5.51921V36.7692C26.2416 40.2484 28.6166 42.2067 31.2208 42.2067C33.5958 42.2067 36.1999 40.5609 36.1999 36.7692V5.74837C36.1999 2.54004 33.825 0.540039 31.2208 0.540039C28.6166 0.540039 26.2416 2.74837 26.2416 5.51921ZM13.2208 21.3734V36.7692C13.2208 40.2692 15.6375 42.2067 18.2 42.2067C20.575 42.2067 23.1791 40.5609 23.1791 36.7692V21.6025C23.1791 18.3942 20.8041 16.3942 18.2 16.3942C15.5958 16.3942 13.2208 18.6025 13.2208 21.3734ZM5.17912 32.2692C7.92912 32.2692 10.1583 34.4984 10.1583 37.2275C10.1583 39.9775 7.92912 42.2067 5.17912 42.2067C2.42912 42.2067 0.199951 39.9775 0.199951 37.2275C0.199951 34.4984 2.42912 32.2692 5.17912 32.2692Z" fill="#AB0232"/>
</svg>
