<svg width="38" height="39" viewBox="0 0 38 39" fill="none" xmlns="http://www.w3.org/2000/svg">
<path d="M0.25 0.623291H37.75V38.1233H0.25V0.623291ZM10.1042 31.9566C10.9375 33.7275 12.5833 35.1858 15.3958 35.1858C18.5208 35.1858 20.6667 33.5191 20.6667 29.8733V17.8316H17.125V29.79C17.125 31.5816 16.3958 32.04 15.25 32.04C14.0417 32.04 13.5417 31.2066 12.9792 30.2275L10.1042 31.9566ZM22.5625 31.5816C23.6042 33.6233 25.7083 35.1858 29 35.1858C32.3333 35.1858 34.8333 33.4566 34.8333 30.2691C34.8333 27.3316 33.1458 26.0191 30.1458 24.7275L29.2708 24.3525C27.75 23.7066 27.1042 23.2691 27.1042 22.2275C27.1042 21.3733 27.75 20.7066 28.7917 20.7066C29.7917 20.7066 30.4583 21.1441 31.0625 22.2275L33.7917 20.415C32.6458 18.415 31.0208 17.6441 28.7917 17.6441C25.6458 17.6441 23.625 19.6441 23.625 22.29C23.625 25.165 25.3125 26.5191 27.8542 27.6025L28.7292 27.9775C30.3542 28.6858 31.3125 29.1233 31.3125 30.3316C31.3125 31.3316 30.375 32.0608 28.9167 32.0608C27.1875 32.0608 26.1875 31.165 25.4375 29.915L22.5625 31.5816Z" fill="#AB0232"/>
</svg>
