<?xml version="1.0" standalone="no"?>
<!DOCTYPE svg PUBLIC "-//W3C//DTD SVG 20010904//EN"
 "http://www.w3.org/TR/2001/REC-SVG-20010904/DTD/svg10.dtd">
<svg version="1.0" xmlns="http://www.w3.org/2000/svg"
 width="500.000000pt" height="500.000000pt" viewBox="0 0 500.000000 500.000000"
 preserveAspectRatio="xMidYMid meet">

<g transform="translate(0.000000,500.000000) scale(0.100000,-0.100000)"
fill="#000000" stroke="none">
<path d="M874 4139 c-58 -22 -106 -65 -137 -123 l-22 -41 -3 -1114 c-3 -1227
-5 -1177 59 -1254 17 -21 50 -48 72 -60 l42 -22 783 -3 782 -2 0 -285 0 -285
-518 0 c-452 0 -520 -2 -540 -16 -27 -19 -28 -48 -2 -74 20 -20 33 -20 1108
-20 968 0 1090 2 1110 16 27 18 29 55 4 77 -17 15 -69 17 -540 17 l-522 0 0
285 0 285 783 2 c780 3 782 3 822 25 47 25 85 64 111 113 18 34 19 82 19 1175
0 1107 -1 1141 -19 1179 -29 58 -78 102 -141 125 -56 21 -56 21 -1628 20
-1533 0 -1573 -1 -1623 -20z m3240 -104 c71 -34 66 52 66 -1198 l0 -1124 -23
-34 c-13 -19 -38 -39 -57 -46 -52 -18 -3150 -17 -3200 1 -19 7 -45 28 -57 46
l-23 33 0 1126 c0 1246 -5 1150 64 1192 30 18 73 19 1614 19 1395 0 1588 -2
1616 -15z"/>
<path d="M1733 2998 c-132 -131 -203 -210 -203 -223 0 -25 397 -425 422 -425
23 0 48 27 48 53 0 15 -56 78 -175 197 l-175 175 175 175 c116 116 175 182
175 196 0 23 -29 54 -50 54 -8 0 -105 -91 -217 -202z"/>
<path d="M2970 3180 c-11 -11 -20 -27 -20 -36 0 -8 69 -84 153 -169 83 -84
163 -164 176 -178 l24 -26 -177 -177 c-97 -98 -176 -186 -176 -196 0 -23 44
-51 67 -44 31 10 413 400 413 422 0 24 -399 424 -423 424 -9 0 -26 -9 -37 -20z"/>
<path d="M2622 3158 c-29 -37 -372 -714 -372 -736 0 -10 9 -27 20 -37 31 -28
64 -7 98 62 15 32 99 197 186 366 141 274 157 312 147 333 -12 27 -61 34 -79
12z"/>
</g>
</svg>
